<?xml version="1.0" encoding="UTF-8" ?>
<svg version="1.1" width="512" height="512" xmlns="http://www.w3.org/2000/svg" shape-rendering="crispEdges">
<rect x="160" y="0" width="32" height="32" fill="#101010" />
<rect x="192" y="0" width="32" height="32" fill="#101010" />
<rect x="224" y="0" width="32" height="32" fill="#101010" />
<rect x="256" y="0" width="32" height="32" fill="#101010" />
<rect x="288" y="0" width="32" height="32" fill="#101010" />
<rect x="320" y="0" width="32" height="32" fill="#101010" />
<rect x="160" y="32" width="32" height="32" fill="#151515" />
<rect x="192" y="32" width="32" height="32" fill="#151515" />
<rect x="224" y="32" width="32" height="32" fill="#151515" />
<rect x="256" y="32" width="32" height="32" fill="#151515" />
<rect x="288" y="32" width="32" height="32" fill="#151515" />
<rect x="320" y="32" width="32" height="32" fill="#151515" />
<rect x="160" y="64" width="32" height="32" fill="#151515" />
<rect x="192" y="64" width="32" height="32" fill="#151515" />
<rect x="224" y="64" width="32" height="32" fill="#151515" />
<rect x="256" y="64" width="32" height="32" fill="#151515" />
<rect x="288" y="64" width="32" height="32" fill="#151515" />
<rect x="320" y="64" width="32" height="32" fill="#151515" />
<rect x="160" y="96" width="32" height="32" fill="#151515" />
<rect x="192" y="96" width="32" height="32" fill="#FFFFFF" />
<rect x="224" y="96" width="32" height="32" fill="#FFFFFF" />
<rect x="256" y="96" width="32" height="32" fill="#FFFFFF" />
<rect x="288" y="96" width="32" height="32" fill="#FFFFFF" />
<rect x="320" y="96" width="32" height="32" fill="#151515" />
<rect x="160" y="128" width="32" height="32" fill="#FFFFFF" />
<rect x="192" y="128" width="32" height="32" fill="#0A0A0A" />
<rect x="224" y="128" width="32" height="32" fill="#FFFFFF" />
<rect x="256" y="128" width="32" height="32" fill="#FFFFFF" />
<rect x="288" y="128" width="32" height="32" fill="#0A0A0A" />
<rect x="320" y="128" width="32" height="32" fill="#FFFFFF" />
<rect x="160" y="160" width="32" height="32" fill="#FFFFFF" />
<rect x="192" y="160" width="32" height="32" fill="#FFFFFF" />
<rect x="224" y="160" width="32" height="32" fill="#FFFFFF" />
<rect x="256" y="160" width="32" height="32" fill="#FFFFFF" />
<rect x="288" y="160" width="32" height="32" fill="#FFFFFF" />
<rect x="320" y="160" width="32" height="32" fill="#FFFFFF" />
<rect x="96" y="192" width="32" height="32" fill="#272727" />
<rect x="128" y="192" width="32" height="32" fill="#272727" />
<rect x="160" y="192" width="32" height="32" fill="#FFFFFF" />
<rect x="192" y="192" width="32" height="32" fill="#FFFFFF" />
<rect x="224" y="192" width="32" height="32" fill="#FFFFFF" />
<rect x="256" y="192" width="32" height="32" fill="#FFFFFF" />
<rect x="288" y="192" width="32" height="32" fill="#FFFFFF" />
<rect x="320" y="192" width="32" height="32" fill="#FFFFFF" />
<rect x="352" y="192" width="32" height="32" fill="#272727" />
<rect x="384" y="192" width="32" height="32" fill="#272727" />
<rect x="96" y="224" width="32" height="32" fill="#FFFFFF" />
<rect x="128" y="224" width="32" height="32" fill="#FFFFFF" />
<rect x="160" y="224" width="32" height="32" fill="#272727" />
<rect x="192" y="224" width="32" height="32" fill="#272727" />
<rect x="224" y="224" width="32" height="32" fill="#272727" />
<rect x="256" y="224" width="32" height="32" fill="#272727" />
<rect x="288" y="224" width="32" height="32" fill="#272727" />
<rect x="320" y="224" width="32" height="32" fill="#272727" />
<rect x="352" y="224" width="32" height="32" fill="#272727" />
<rect x="384" y="224" width="32" height="32" fill="#272727" />
<rect x="96" y="256" width="32" height="32" fill="#FFFFFF" />
<rect x="128" y="256" width="32" height="32" fill="#A2A2A2" />
<rect x="160" y="256" width="32" height="32" fill="#272727" />
<rect x="192" y="256" width="32" height="32" fill="#272727" />
<rect x="224" y="256" width="32" height="32" fill="#272727" />
<rect x="256" y="256" width="32" height="32" fill="#272727" />
<rect x="288" y="256" width="32" height="32" fill="#272727" />
<rect x="320" y="256" width="32" height="32" fill="#272727" />
<rect x="352" y="256" width="32" height="32" fill="#A2A2A2" />
<rect x="384" y="256" width="32" height="32" fill="#A2A2A2" />
<rect x="96" y="288" width="32" height="32" fill="#A2A2A2" />
<rect x="128" y="288" width="32" height="32" fill="#FFFFFF" />
<rect x="160" y="288" width="32" height="32" fill="#272727" />
<rect x="192" y="288" width="32" height="32" fill="#272727" />
<rect x="224" y="288" width="32" height="32" fill="#272727" />
<rect x="256" y="288" width="32" height="32" fill="#272727" />
<rect x="288" y="288" width="32" height="32" fill="#272727" />
<rect x="320" y="288" width="32" height="32" fill="#272727" />
<rect x="160" y="320" width="32" height="32" fill="#272727" />
<rect x="192" y="320" width="32" height="32" fill="#272727" />
<rect x="224" y="320" width="32" height="32" fill="#272727" />
<rect x="256" y="320" width="32" height="32" fill="#272727" />
<rect x="288" y="320" width="32" height="32" fill="#272727" />
<rect x="320" y="320" width="32" height="32" fill="#272727" />
<rect x="160" y="352" width="32" height="32" fill="#0A0A0A" />
<rect x="192" y="352" width="32" height="32" fill="#0A0A0A" />
<rect x="224" y="352" width="32" height="32" fill="#0A0A0A" />
<rect x="256" y="352" width="32" height="32" fill="#0A0A0A" />
<rect x="288" y="352" width="32" height="32" fill="#0A0A0A" />
<rect x="320" y="352" width="32" height="32" fill="#272727" />
<rect x="160" y="384" width="32" height="32" fill="#0A0A0A" />
<rect x="192" y="384" width="32" height="32" fill="#0A0A0A" />
<rect x="224" y="384" width="32" height="32" fill="#0A0A0A" />
<rect x="256" y="384" width="32" height="32" fill="#0A0A0A" />
<rect x="288" y="384" width="32" height="32" fill="#0A0A0A" />
<rect x="320" y="384" width="32" height="32" fill="#0A0A0A" />
<rect x="160" y="416" width="32" height="32" fill="#0A0A0A" />
<rect x="192" y="416" width="32" height="32" fill="#0A0A0A" />
<rect x="288" y="416" width="32" height="32" fill="#0A0A0A" />
<rect x="320" y="416" width="32" height="32" fill="#0A0A0A" />
<rect x="288" y="448" width="32" height="32" fill="#0A0A0A" />
<rect x="320" y="448" width="32" height="32" fill="#0A0A0A" />
<rect x="288" y="480" width="32" height="32" fill="#101010" />
<rect x="320" y="480" width="32" height="32" fill="#101010" />
</svg>